{
  "accessors": [
    {
      "bufferView": 2,
      "componentType": 5126,
      "count": 65532,
      "max": [
        12.894204139709473,
        6.0867538452148438,
        10.759668350219727
      ],
      "min": [
        1.3151612281799316,
        0.19774484634399414,
        0.33962392807006836
      ],
      "type": "VEC3"
    },
    {
      "bufferView": 2,
      "byteOffset": 786384,
      "componentType": 5126,
      "count": 65532,
      "max": [
        0.99986982345581055,
        0.99999243021011353,
        0.99680173397064209
      ],
      "min": [
        -0.99063408374786377,
        -0.99348491430282593,
        -0.99993550777435303
      ],
      "type": "VEC3"
    },
    {
      "bufferView": 3,
      "componentType": 5126,
      "count": 65532,
      "max": [
        0.99984502792358398,
        0.99995613098144531,
        0.99966263771057129,
        1
      ],
      "min": [
        -0.99027955532073975,
        -0.99990558624267578,
        -0.99991953372955322,
        -1
      ],
      "type": "VEC4"
    },
    {
      "bufferView": 1,
      "componentType": 5126,
      "count": 65532,
      "max": [
        0.99161702394485474,
        0.99945700168609619
      ],
      "min": [
        0.0098090004175901413,
        0.06312599778175354
      ],
      "type": "VEC2"
    },
    {
      "bufferView": 0,
      "componentType": 5125,
      "count": 344691,
      "max": [
        65531
      ],
      "min": [
        0
      ],
      "type": "SCALAR"
    },
    {
      "bufferView": 2,
      "byteOffset": 1572768,
      "componentType": 5126,
      "count": 65532,
      "max": [
        12.88448429107666,
        6.0867538452148438,
        10.512075424194336
      ],
      "min": [
        1.1000189781188965,
        0.67330694198608398,
        0.30466079711914062
      ],
      "type": "VEC3"
    },
    {
      "bufferView": 2,
      "byteOffset": 2359152,
      "componentType": 5126,
      "count": 65532,
      "max": [
        0.9999808669090271,
        0.99999666213989258,
        0.99280858039855957
      ],
      "min": [
        -0.94208222627639771,
        -0.99998724460601807,
        -0.99993652105331421
      ],
      "type": "VEC3"
    },
    {
      "bufferView": 3,
      "byteOffset": 1048512,
      "componentType": 5126,
      "count": 65532,
      "max": [
        0.99993038177490234,
        0.99980908632278442,
        0.99572467803955078,
        1
      ],
      "min": [
        -0.99999004602432251,
        -0.99989718198776245,
        -0.98804116249084473,
        -1
      ],
      "type": "VEC4"
    },
    {
      "bufferView": 1,
      "byteOffset": 524256,
      "componentType": 5126,
      "count": 65532,
      "max": [
        0.99314099550247192,
        0.99955302476882935
      ],
      "min": [
        0.011293999850749969,
        0.0039800000376999378
      ],
      "type": "VEC2"
    },
    {
      "bufferView": 0,
      "byteOffset": 1378764,
      "componentType": 5125,
      "count": 323874,
      "max": [
        65531
      ],
      "min": [
        0
      ],
      "type": "SCALAR"
    },
    {
      "bufferView": 2,
      "byteOffset": 3145536,
      "componentType": 5126,
      "count": 65532,
      "max": [
        12.746932983398438,
        6.0763258934020996,
        9.7367324829101562
      ],
      "min": [
        0.25314807891845703,
        0.13897180557250977,
        0.022947788238525391
      ],
      "type": "VEC3"
    },
    {
      "bufferView": 2,
      "byteOffset": 3931920,
      "componentType": 5126,
      "count": 65532,
      "max": [
        0.9999808669090271,
        0.99999821186065674,
        0.99818480014801025
      ],
      "min": [
        -0.98310059309005737,
        -0.99998664855957031,
        -0.99993175268173218
      ],
      "type": "VEC3"
    },
    {
      "bufferView": 3,
      "byteOffset": 2097024,
      "componentType": 5126,
      "count": 65532,
      "max": [
        0.99993765354156494,
        0.99972611665725708,
        0.99774086475372314,
        1
      ],
      "min": [
        -0.94199365377426147,
        -0.9998856782913208,
        -0.9594651460647583,
        -1
      ],
      "type": "VEC4"
    },
    {
      "bufferView": 1,
      "byteOffset": 1048512,
      "componentType": 5126,
      "count": 65532,
      "max": [
        0.97747600078582764,
        0.99340999126434326
      ],
      "min": [
        0.021158000454306602,
        0.046790000051259995
      ],
      "type": "VEC2"
    },
    {
      "bufferView": 0,
      "byteOffset": 2674260,
      "componentType": 5125,
      "count": 317355,
      "max": [
        65531
      ],
      "min": [
        0
      ],
      "type": "SCALAR"
    },
    {
      "bufferView": 2,
      "byteOffset": 4718304,
      "componentType": 5126,
      "count": 65532,
      "max": [
        12.676845550537109,
        5.998382568359375,
        9.236842155456543
      ],
      "min": [
        0.00013828277587890625,
        0.17281484603881836,
        0
      ],
      "type": "VEC3"
    },
    {
      "bufferView": 2,
      "byteOffset": 5504688,
      "componentType": 5126,
      "count": 65532,
      "max": [
        0.99996298551559448,
        0.99999785423278809,
        0.99401551485061646
      ],
      "min": [
        -0.99988377094268799,
        -0.99998563528060913,
        -0.99993258714675903
      ],
      "type": "VEC3"
    },
    {
      "bufferView": 3,
      "byteOffset": 3145536,
      "componentType": 5126,
      "count": 65532,
      "max": [
        0.9998013973236084,
        0.99972611665725708,
        0.98522555828094482,
        1
      ],
      "min": [
        -0.99831151962280273,
        -0.99940568208694458,
        -0.99988561868667603,
        -1
      ],
      "type": "VEC4"
    },
    {
      "bufferView": 1,
      "byteOffset": 1572768,
      "componentType": 5126,
      "count": 65532,
      "max": [
        0.99336802959442139,
        0.99563801288604736
      ],
      "min": [
        0.021119000390172005,
        0.0042030001059174538
      ],
      "type": "VEC2"
    },
    {
      "bufferView": 0,
      "byteOffset": 3943680,
      "componentType": 5125,
      "count": 314910,
      "max": [
        65531
      ],
      "min": [
        0
      ],
      "type": "SCALAR"
    },
    {
      "bufferView": 2,
      "byteOffset": 6291072,
      "componentType": 5126,
      "count": 65532,
      "max": [
        12.466570854187012,
        5.8569087982177734,
        9.9717903137207031
      ],
      "min": [
        0.002307891845703125,
        0.14413690567016602,
        0.000293731689453125
      ],
      "type": "VEC3"
    },
    {
      "bufferView": 2,
      "byteOffset": 7077456,
      "componentType": 5126,
      "count": 65532,
      "max": [
        0.99991726875305176,
        0.99998289346694946,
        0.98548310995101929
      ],
      "min": [
        -0.99995297193527222,
        -0.99999690055847168,
        -0.99988752603530884
      ],
      "type": "VEC3"
    },
    {
      "bufferView": 3,
      "byteOffset": 4194048,
      "componentType": 5126,
      "count": 65532,
      "max": [
        0.99545049667358398,
        0.99953603744506836,
        0.99551928043365479,
        1
      ],
      "min": [
        -0.99999004602432251,
        -0.99048852920532227,
        -0.99384403228759766,
        -1
      ],
      "type": "VEC4"
    },
    {
      "bufferView": 1,
      "byteOffset": 2097024,
      "componentType": 5126,
      "count": 65532,
      "max": [
        0.98613697290420532,
        0.99926602840423584
      ],
      "min": [
        0.0018230000277981162,
        0.027484999969601631
      ],
      "type": "VEC2"
    },
    {
      "bufferView": 0,
      "byteOffset": 5203320,
      "componentType": 5125,
      "count": 318864,
      "max": [
        65531
      ],
      "min": [
        0
      ],
      "type": "SCALAR"
    },
    {
      "bufferView": 2,
      "byteOffset": 7863840,
      "componentType": 5126,
      "count": 65532,
      "max": [
        12.307371139526367,
        5.7264060974121094,
        10.589346885681152
      ],
      "min": [
        0.092120170593261719,
        0,
        0.082880020141601562
      ],
      "type": "VEC3"
    },
    {
      "bufferView": 2,
      "byteOffset": 8650224,
      "componentType": 5126,
      "count": 65532,
      "max": [
        0.98770356178283691,
        0.99999821186065674,
        0.99891477823257446
      ],
      "min": [
        -0.99951756000518799,
        -0.99999821186065674,
        -0.9999004602432251
      ],
      "type": "VEC3"
    },
    {
      "bufferView": 3,
      "byteOffset": 5242560,
      "componentType": 5126,
      "count": 65532,
      "max": [
        0.99950319528579712,
        0.99985772371292114,
        0.9941258430480957,
        1
      ],
      "min": [
        -0.99990451335906982,
        -0.9997287392616272,
        -0.99931138753890991,
        -1
      ],
      "type": "VEC4"
    },
    {
      "bufferView": 1,
      "byteOffset": 2621280,
      "componentType": 5126,
      "count": 65532,
      "max": [
        0.98558700084686279,
        0.99944299459457397
      ],
      "min": [
        0.0021240001078695059,
        0.0038709999062120914
      ],
      "type": "VEC2"
    },
    {
      "bufferView": 0,
      "byteOffset": 6478776,
      "componentType": 5125,
      "count": 300423,
      "max": [
        65531
      ],
      "min": [
        0
      ],
      "type": "SCALAR"
    },
    {
      "bufferView": 2,
      "byteOffset": 9436608,
      "componentType": 5126,
      "count": 65532,
      "max": [
        11.856538772583008,
        5.4008512496948242,
        10.706046104431152
      ],
      "min": [
        0,
        0.00385284423828125,
        0.64373779296875
      ],
      "type": "VEC3"
    },
    {
      "bufferView": 2,
      "byteOffset": 10222992,
      "componentType": 5126,
      "count": 65532,
      "max": [
        0.99838244915008545,
        0.99414539337158203,
        0.99958878755569458
      ],
      "min": [
        -0.99990260601043701,
        -0.9999886155128479,
        -0.99992740154266357
      ],
      "type": "VEC3"
    },
    {
      "bufferView": 3,
      "byteOffset": 6291072,
      "componentType": 5126,
      "count": 65532,
      "max": [
        0.96982032060623169,
        0.99999409914016724,
        0.99999803304672241,
        1
      ],
      "min": [
        -0.9999731183052063,
        -0.99998831748962402,
        -0.99931138753890991,
        -1
      ],
      "type": "VEC4"
    },
    {
      "bufferView": 1,
      "byteOffset": 3145536,
      "componentType": 5126,
      "count": 65532,
      "max": [
        0.95238399505615234,
        0.95554399490356445
      ],
      "min": [
        0.059939000755548477,
        0.0040270001627504826
      ],
      "type": "VEC2"
    },
    {
      "bufferView": 0,
      "byteOffset": 7680468,
      "componentType": 5125,
      "count": 321999,
      "max": [
        65531
      ],
      "min": [
        0
      ],
      "type": "SCALAR"
    },
    {
      "bufferView": 2,
      "byteOffset": 11009376,
      "componentType": 5126,
      "count": 65532,
      "max": [
        11.519590377807617,
        5.2280240058898926,
        10.574320793151855
      ],
      "min": [
        0.112152099609375,
        0.0018908977508544922,
        1.2133951187133789
      ],
      "type": "VEC3"
    },
    {
      "bufferView": 2,
      "byteOffset": 11795760,
      "componentType": 5126,
      "count": 65532,
      "max": [
        0.93822193145751953,
        0.99414539337158203,
        0.9999995231628418
      ],
      "min": [
        -0.99995297193527222,
        -0.99999821186065674,
        -0.97262847423553467
      ],
      "type": "VEC3"
    },
    {
      "bufferView": 3,
      "byteOffset": 7339584,
      "componentType": 5126,
      "count": 65532,
      "max": [
        0.93104910850524902,
        0.99999397993087769,
        0.99998986721038818,
        1
      ],
      "min": [
        -0.99990451335906982,
        -0.99998563528060913,
        -0.99900496006011963,
        -1
      ],
      "type": "VEC4"
    },
    {
      "bufferView": 1,
      "byteOffset": 3669792,
      "componentType": 5126,
      "count": 65532,
      "max": [
        0.95241600275039673,
        0.93279999494552612
      ],
      "min": [
        0.027909999713301659,
        0.0096330000087618828
      ],
      "type": "VEC2"
    },
    {
      "bufferView": 0,
      "byteOffset": 8968464,
      "componentType": 5125,
      "count": 322674,
      "max": [
        65531
      ],
      "min": [
        0
      ],
      "type": "SCALAR"
    },
    {
      "bufferView": 2,
      "byteOffset": 12582144,
      "componentType": 5126,
      "count": 65532,
      "max": [
        11.80177116394043,
        5.0796108245849609,
        10.815735816955566
      ],
      "min": [
        0.605377197265625,
        0.0018699169158935547,
        1.7613289356231689
      ],
      "type": "VEC3"
    },
    {
      "bufferView": 2,
      "byteOffset": 13368528,
      "componentType": 5126,
      "count": 65532,
      "max": [
        0.99582123756408691,
        0.99600225687026978,
        0.99982023239135742
      ],
      "min": [
        -0.99999803304672241,
        -0.999988853931427,
        -0.98331421613693237
      ],
      "type": "VEC3"
    },
    {
      "bufferView": 3,
      "byteOffset": 8388096,
      "componentType": 5126,
      "count": 65532,
      "max": [
        0.99994194507598877,
        0.99995684623718262,
        0.99993669986724854,
        1
      ],
      "min": [
        -0.99378585815429688,
        -0.99991297721862793,
        -0.9998708963394165,
        -1
      ],
      "type": "VEC4"
    },
    {
      "bufferView": 1,
      "byteOffset": 4194048,
      "componentType": 5126,
      "count": 65532,
      "max": [
        0.98426800966262817,
        0.99218899011611938
      ],
      "min": [
        0.031318001449108124,
        0.0037760001141577959
      ],
      "type": "VEC2"
    },
    {
      "bufferView": 0,
      "byteOffset": 10259160,
      "componentType": 5125,
      "count": 306084,
      "max": [
        65531
      ],
      "min": [
        0
      ],
      "type": "SCALAR"
    },
    {
      "bufferView": 2,
      "byteOffset": 14154912,
      "componentType": 5126,
      "count": 13400,
      "max": [
        12.889425277709961,
        5.8345699310302734,
        10.809545516967773
      ],
      "min": [
        2.0839519500732422,
        0.085675954818725586,
        4.089198112487793
      ],
      "type": "VEC3"
    },
    {
      "bufferView": 2,
      "byteOffset": 14315712,
      "componentType": 5126,
      "count": 13400,
      "max": [
        0.99526017904281616,
        0.99865049123764038,
        0.99929594993591309
      ],
      "min": [
        -0.99242913722991943,
        -0.96459656953811646,
        -0.99439769983291626
      ],
      "type": "VEC3"
    },
    {
      "bufferView": 3,
      "byteOffset": 9436608,
      "componentType": 5126,
      "count": 13400,
      "max": [
        0.99980896711349487,
        0.99937719106674194,
        0.99996000528335571,
        1
      ],
      "min": [
        -0.999675452709198,
        -0.99984180927276611,
        -0.99357527494430542,
        -1
      ],
      "type": "VEC4"
    },
    {
      "bufferView": 1,
      "byteOffset": 4718304,
      "componentType": 5126,
      "count": 13400,
      "max": [
        0.98601698875427246,
        1.0016410350799561
      ],
      "min": [
        0.0091129997745156288,
        0.00926200021058321
      ],
      "type": "VEC2"
    },
    {
      "bufferView": 0,
      "byteOffset": 11483496,
      "componentType": 5125,
      "count": 53784,
      "max": [
        13399
      ],
      "min": [
        0
      ],
      "type": "SCALAR"
    }
  ],
  "asset": {
    "extras": {
      "author": "The British Museum (https://sketchfab.com/britishmuseum)",
      "license": "CC-BY-NC-SA-4.0 (http://creativecommons.org/licenses/by-nc-sa/4.0/)",
      "source": "https://sketchfab.com/models/8a74dbb15f5d452e98c6c746983c46f0",
      "title": "Breccia statue of Taweret"
    },
    "generator": "Sketchfab-3.18.7",
    "version": "2.0"
  },
  "bufferViews": [
    {
      "buffer": 0,
      "byteLength": 11698632,
      "byteOffset": 0,
      "name": "floatBufferViews",
      "target": 34963
    },
    {
      "buffer": 0,
      "byteLength": 4825504,
      "byteOffset": 11698632,
      "byteStride": 8,
      "name": "floatBufferViews",
      "target": 34962
    },
    {
      "buffer": 0,
      "byteLength": 14476512,
      "byteOffset": 16524136,
      "byteStride": 12,
      "name": "floatBufferViews",
      "target": 34962
    },
    {
      "buffer": 0,
      "byteLength": 9651008,
      "byteOffset": 31000648,
      "byteStride": 16,
      "name": "floatBufferViews",
      "target": 34962
    }
  ],
  "buffers": [
    {
      "byteLength": 40651656,
      "uri": "scene.bin"
    }
  ],
  "images": [
    {
      "uri": "textures/material_0_baseColor.jpeg"
    }
  ],
  "materials": [
    {
      "doubleSided": true,
      "emissiveFactor": [
        0,
        0,
        0
      ],
      "name": "material_0",
      "pbrMetallicRoughness": {
        "baseColorFactor": [
          1,
          1,
          1,
          1
        ],
        "baseColorTexture": {
          "index": 0,
          "texCoord": 0
        },
        "metallicFactor": 0,
        "roughnessFactor": 0.52000000000000002
      }
    }
  ],
  "meshes": [
    {
      "primitives": [
        {
          "attributes": {
            "NORMAL": 1,
            "POSITION": 0,
            "TANGENT": 2,
            "TEXCOORD_0": 3
          },
          "indices": 4,
          "material": 0,
          "mode": 4
        }
      ]
    },
    {
      "primitives": [
        {
          "attributes": {
            "NORMAL": 6,
            "POSITION": 5,
            "TANGENT": 7,
            "TEXCOORD_0": 8
          },
          "indices": 9,
          "material": 0,
          "mode": 4
        }
      ]
    },
    {
      "primitives": [
        {
          "attributes": {
            "NORMAL": 11,
            "POSITION": 10,
            "TANGENT": 12,
            "TEXCOORD_0": 13
          },
          "indices": 14,
          "material": 0,
          "mode": 4
        }
      ]
    },
    {
      "primitives": [
        {
          "attributes": {
            "NORMAL": 16,
            "POSITION": 15,
            "TANGENT": 17,
            "TEXCOORD_0": 18
          },
          "indices": 19,
          "material": 0,
          "mode": 4
        }
      ]
    },
    {
      "primitives": [
        {
          "attributes": {
            "NORMAL": 21,
            "POSITION": 20,
            "TANGENT": 22,
            "TEXCOORD_0": 23
          },
          "indices": 24,
          "material": 0,
          "mode": 4
        }
      ]
    },
    {
      "primitives": [
        {
          "attributes": {
            "NORMAL": 26,
            "POSITION": 25,
            "TANGENT": 27,
            "TEXCOORD_0": 28
          },
          "indices": 29,
          "material": 0,
          "mode": 4
        }
      ]
    },
    {
      "primitives": [
        {
          "attributes": {
            "NORMAL": 31,
            "POSITION": 30,
            "TANGENT": 32,
            "TEXCOORD_0": 33
          },
          "indices": 34,
          "material": 0,
          "mode": 4
        }
      ]
    },
    {
      "primitives": [
        {
          "attributes": {
            "NORMAL": 36,
            "POSITION": 35,
            "TANGENT": 37,
            "TEXCOORD_0": 38
          },
          "indices": 39,
          "material": 0,
          "mode": 4
        }
      ]
    },
    {
      "primitives": [
        {
          "attributes": {
            "NORMAL": 41,
            "POSITION": 40,
            "TANGENT": 42,
            "TEXCOORD_0": 43
          },
          "indices": 44,
          "material": 0,
          "mode": 4
        }
      ]
    },
    {
      "primitives": [
        {
          "attributes": {
            "NORMAL": 46,
            "POSITION": 45,
            "TANGENT": 47,
            "TEXCOORD_0": 48
          },
          "indices": 49,
          "material": 0,
          "mode": 4
        }
      ]
    }
  ],
  "nodes": [
    {
      "children": [
        1
      ],
      "name": "RootNode (gltf orientation matrix)",
      "rotation": [
        -0.70710678118654746,
        -0,
        -0,
        0.70710678118654757
      ]
    },
    {
      "children": [
        2
      ],
      "matrix": [
        -0.54857927560806274,
        -0.32532879710197449,
        -0.77020907402038574,
        0,
        -0.49205866456031799,
        0.8703925609588623,
        -0.017177898436784744,
        0,
        0.67597270011901855,
        0.36956459283828735,
        -0.63756012916564941,
        0,
        5.6415001381537877e-06,
        2.9247000838950044e-06,
        -1.2282500392757356e-05,
        1
      ],
      "name": "RootNode (model correction matrix)"
    },
    {
      "children": [
        3,
        4,
        5,
        6,
        7,
        8,
        9,
        10,
        11,
        12
      ],
      "matrix": [
        1,
        0,
        0,
        0,
        0,
        1,
        0,
        0,
        0,
        0,
        1,
        0,
        -6.4471020698547363,
        -3.0433769226074219,
        -5.4078679084777832,
        1
      ],
      "name": "model.obj.cleaner.gles"
    },
    {
      "mesh": 0,
      "name": ""
    },
    {
      "mesh": 1,
      "name": ""
    },
    {
      "mesh": 2,
      "name": ""
    },
    {
      "mesh": 3,
      "name": ""
    },
    {
      "mesh": 4,
      "name": ""
    },
    {
      "mesh": 5,
      "name": ""
    },
    {
      "mesh": 6,
      "name": ""
    },
    {
      "mesh": 7,
      "name": ""
    },
    {
      "mesh": 8,
      "name": ""
    },
    {
      "mesh": 9,
      "name": ""
    }
  ],
  "samplers": [
    {
      "magFilter": 9729,
      "minFilter": 9987,
      "wrapS": 10497,
      "wrapT": 10497
    }
  ],
  "scene": 0,
  "scenes": [
    {
      "name": "OSG_Scene",
      "nodes": [
        0
      ]
    }
  ],
  "textures": [
    {
      "sampler": 0,
      "source": 0
    }
  ]
}

